<svg preserveAspectRatio="xMidYMid meet" data-bbox="0 0 410.76 121.28" viewBox="0 0 410.76 121.28" xmlns="http://www.w3.org/2000/svg" data-type="color" role="presentation" aria-hidden="true" aria-label="">
    <g>
        <path d="M75.98 37.82H40.8v19.24h35.18v18.09H40.8v46.11h68.75c-8.56 0-15.25-2.4-19.88-7.13-4.81-4.8-7.25-11.75-7.25-20.65V57.06h16.39V93.3c0 8.92 3.47 13.07 10.93 13.07s10.93-4.15 10.93-13.07V57.06h15.92V37.82H76Z" fill="#1f9b90" data-color="1"></path>
        <path d="M19.24 0h-7.56C9.44.06 0 .96 0 12.29v92.5h19.24V19.24h66.12V0H19.24Z" fill="#1f9b90" data-color="1"></path>
        <path fill="#10565f" d="M19.24 19.24 0 37.82v66.97h19.24V19.24z" data-color="2"></path>
        <path fill="#10565f" d="M85.36 37.82 65.42 57.06H40.8V37.82h44.56z" data-color="2"></path>
        <path d="M153.15 96.32c1.1 9.31 7.47 13.91 18.99 13.91 10.41 0 15.56-3.91 15.56-11.72 0-4.6-2.2-8.05-6.62-10.23-.61-.34-5.39-1.84-14.09-4.6-7.47-2.3-12.86-4.71-16.17-7.24-5.27-4.02-7.96-9.66-7.96-16.78s2.45-12.3 7.35-16.09c4.78-3.79 11.52-5.75 20.21-5.75 16.78 0 26.71 6.67 29.77 20.12l-12.37 3.1c-1.96-8.16-7.72-12.3-17.4-12.3s-14.33 3.56-14.33 10.69c0 4.02 1.84 7.13 5.64 9.31 2.33 1.26 6.98 2.99 14.21 5.06 7.84 2.18 13.47 4.6 16.9 7.24 5.27 4.14 7.97 9.88 7.97 17.36s-2.45 13.1-7.47 17.13c-4.9 3.79-11.88 5.75-21.07 5.75-18.5 0-29.03-7.24-31.49-21.84l12.37-3.1Z" fill="#10565f" data-color="2"></path>
        <path d="M218.73 48.73c7.1-7.24 16.54-10.92 28.42-10.92s21.32 3.56 28.42 10.8c7.35 7.47 11.03 17.82 11.03 30.92s-3.68 23.33-11.03 30.81c-7.23 7.24-16.66 10.92-28.42 10.92s-21.32-3.68-28.42-10.92c-7.35-7.47-11.03-17.82-11.03-30.81s3.68-23.33 11.03-30.81Zm9.43 53.22c4.66 5.17 11.03 7.7 18.99 7.7s14.21-2.53 18.99-7.59c4.9-5.4 7.35-12.87 7.35-22.53s-2.45-17.24-7.35-22.64c-4.66-5.06-11.03-7.59-18.99-7.59s-14.33 2.53-18.99 7.59c-4.9 5.4-7.35 12.87-7.35 22.53s2.45 17.24 7.35 22.53Z" fill="#10565f" data-color="2"></path>
        <path d="M310.41 50.69v23.68h24.98v11.38h-24.98v34.02h-12.99V39.31h46.66v11.38H310.4Z" fill="#10565f" data-color="2"></path>
        <path d="M388.84 50.69v69.08h-12.87V50.69h-21.92V39.31h56.71v11.38h-21.92Z" fill="#10565f" data-color="2"></path>
        <path fill="#10565f" d="M75.96 75.15H40.8v33.93l35.16-33.93z" data-color="2"></path>
    </g>
</svg>